<svg width="66" height="129" viewBox="0 0 66 129" fill="none" xmlns="http://www.w3.org/2000/svg">
<path d="M61 50.8182C37.1481 107.076 33 117 33 117C33 117 27.8148 107.076 5 50.8182C5 38.6664 7.94999 27.0124 13.201 18.4198C18.452 9.82726 25.5739 5 33 5C40.4261 5 47.548 9.82726 52.799 18.4198C58.05 27.0124 61 38.6664 61 50.8182Z" stroke="#050A30" stroke-width="10" stroke-linecap="round"/>
<path d="M33 49.6003C40.732 49.6003 47 44.1431 47 37.4112C47 30.6794 40.732 25.2222 33 25.2222C25.268 25.2222 19 30.6794 19 37.4112C19 44.1431 25.268 49.6003 33 49.6003Z" stroke="#050A30" stroke-width="10" stroke-linecap="round" stroke-linejoin="round"/>
</svg>
