<svg width="284" height="60" viewBox="0 0 284 60" fill="none" xmlns="http://www.w3.org/2000/svg">
<path d="M6.3457 36.4249V46.4445H2.9707V20.8507H12.4102C15.2109 20.8507 17.4023 21.5656 18.9844 22.9952C20.5781 24.4249 21.375 26.3175 21.375 28.673C21.375 31.1573 20.5957 33.0734 19.0371 34.421C17.4902 35.757 15.2695 36.4249 12.375 36.4249H6.3457ZM6.3457 33.6652H12.4102C14.2148 33.6652 15.5977 33.2433 16.5586 32.3995C17.5195 31.5441 18 30.3136 18 28.7081C18 27.1847 17.5195 25.9659 16.5586 25.0519C15.5977 24.1378 14.2793 23.6632 12.6035 23.6281H6.3457V33.6652Z" fill="white"/>
<path d="M45.2031 46.4445C45.0156 46.0695 44.8633 45.4015 44.7461 44.4406C43.2344 46.0109 41.4297 46.796 39.332 46.796C37.457 46.796 35.916 46.2687 34.709 45.214C33.5137 44.1476 32.916 42.7999 32.916 41.171C32.916 39.1906 33.666 37.6554 35.166 36.5656C36.6777 35.464 38.7988 34.9132 41.5293 34.9132H44.6934V33.4191C44.6934 32.2823 44.3535 31.38 43.6738 30.712C42.9941 30.0323 41.9922 29.6925 40.668 29.6925C39.5078 29.6925 38.5352 29.9855 37.75 30.5714C36.9648 31.1573 36.5723 31.8663 36.5723 32.6984H33.3027C33.3027 31.7491 33.6367 30.8351 34.3047 29.9562C34.9844 29.0656 35.8984 28.3624 37.0469 27.8468C38.207 27.3312 39.4785 27.0734 40.8613 27.0734C43.0527 27.0734 44.7695 27.6241 46.0117 28.7257C47.2539 29.8156 47.8984 31.3214 47.9453 33.2433V41.9972C47.9453 43.7433 48.168 45.132 48.6133 46.1632V46.4445H45.2031ZM39.8066 43.9659C40.8262 43.9659 41.793 43.7023 42.707 43.1749C43.6211 42.6476 44.2832 41.962 44.6934 41.1183V37.2159H42.1445C38.1602 37.2159 36.168 38.382 36.168 40.714C36.168 41.7335 36.5078 42.5304 37.1875 43.1046C37.8672 43.6788 38.7402 43.9659 39.8066 43.9659Z" fill="white"/>
<path d="M68.873 22.8195V27.4249H72.4238V29.9386H68.873V41.7335C68.873 42.4952 69.0312 43.0695 69.3477 43.4562C69.6641 43.8312 70.2031 44.0187 70.9648 44.0187C71.3398 44.0187 71.8555 43.9484 72.5117 43.8077V46.4445C71.6562 46.6788 70.8242 46.796 70.0156 46.796C68.5625 46.796 67.4668 46.3566 66.7285 45.4777C65.9902 44.5988 65.6211 43.3507 65.6211 41.7335V29.9386H62.1582V27.4249H65.6211V22.8195H68.873Z" fill="white"/>
<path d="M91.7129 29.7277C93.1543 27.9581 95.0293 27.0734 97.3379 27.0734C101.357 27.0734 103.385 29.3409 103.42 33.8761V46.4445H100.168V33.8585C100.156 32.4874 99.8398 31.4738 99.2188 30.8175C98.6094 30.1613 97.6543 29.8331 96.3535 29.8331C95.2988 29.8331 94.373 30.1144 93.5762 30.6769C92.7793 31.2394 92.1582 31.9777 91.7129 32.8917V46.4445H88.4609V19.4445H91.7129V29.7277Z" fill="white"/>
<path d="M155.061 45.6667V29.1608H152.055V26.6471H155.061V24.696C155.061 22.6569 155.605 21.0807 156.695 19.9674C157.785 18.8542 159.326 18.2975 161.318 18.2975C162.068 18.2975 162.812 18.3971 163.551 18.5963L163.375 21.2331C162.824 21.1276 162.238 21.0749 161.617 21.0749C160.562 21.0749 159.748 21.3854 159.174 22.0065C158.6 22.6159 158.312 23.4948 158.312 24.6432V26.6471H162.373V29.1608H158.312V45.6667H155.061Z" fill="white"/>
<path d="M176.994 46.4445H173.742V27.4249H176.994V46.4445ZM173.479 22.38C173.479 21.8527 173.637 21.4073 173.953 21.0441C174.281 20.6808 174.762 20.4991 175.395 20.4991C176.027 20.4991 176.508 20.6808 176.836 21.0441C177.164 21.4073 177.328 21.8527 177.328 22.38C177.328 22.9073 177.164 23.3468 176.836 23.6984C176.508 24.0499 176.027 24.2257 175.395 24.2257C174.762 24.2257 174.281 24.0499 173.953 23.6984C173.637 23.3468 173.479 22.9073 173.479 22.38Z" fill="white"/>
<path d="M192.537 26.6471L192.643 29.0378C194.096 27.2096 195.994 26.2956 198.338 26.2956C202.357 26.2956 204.385 28.5631 204.42 33.0983V45.6667H201.168V33.0807C201.156 31.7096 200.84 30.696 200.219 30.0397C199.609 29.3835 198.654 29.0553 197.354 29.0553C196.299 29.0553 195.373 29.3366 194.576 29.8991C193.779 30.4616 193.158 31.1999 192.713 32.1139V45.6667H189.461V26.6471H192.537Z" fill="white"/>
<path d="M214.67 36.7765C214.67 33.8585 215.361 31.5148 216.744 29.7452C218.127 27.964 219.938 27.0734 222.176 27.0734C224.402 27.0734 226.166 27.8351 227.467 29.3585V19.4445H230.719V46.4445H227.73L227.572 44.4054C226.271 45.9991 224.461 46.796 222.141 46.796C219.938 46.796 218.139 45.8937 216.744 44.089C215.361 42.2843 214.67 39.9288 214.67 37.0226V36.7765ZM217.922 37.1456C217.922 39.3019 218.367 40.9894 219.258 42.2081C220.148 43.4269 221.379 44.0363 222.949 44.0363C225.012 44.0363 226.518 43.1105 227.467 41.2589V32.5226C226.494 30.7296 225 29.8331 222.984 29.8331C221.391 29.8331 220.148 30.4484 219.258 31.6788C218.367 32.9093 217.922 34.7316 217.922 37.1456Z" fill="white"/>
<path d="M252.354 46.796C249.775 46.796 247.678 45.9523 246.061 44.2648C244.443 42.5656 243.635 40.298 243.635 37.462V36.8644C243.635 34.9777 243.992 33.296 244.707 31.8195C245.434 30.3312 246.441 29.171 247.73 28.339C249.031 27.4952 250.438 27.0734 251.949 27.0734C254.422 27.0734 256.344 27.8878 257.715 29.5167C259.086 31.1456 259.771 33.4777 259.771 36.5128V37.8663H246.887C246.934 39.7413 247.479 41.2589 248.521 42.4191C249.576 43.5675 250.912 44.1417 252.529 44.1417C253.678 44.1417 254.65 43.9073 255.447 43.4386C256.244 42.9698 256.941 42.3488 257.539 41.5753L259.525 43.1222C257.932 45.5714 255.541 46.796 252.354 46.796ZM251.949 29.7452C250.637 29.7452 249.535 30.2257 248.645 31.1866C247.754 32.1359 247.203 33.4718 246.992 35.1945H256.52V34.9484C256.426 33.296 255.98 32.0187 255.184 31.1163C254.387 30.2023 253.309 29.7452 251.949 29.7452Z" fill="white"/>
<path d="M282.654 29.5651C282.162 29.4831 281.629 29.442 281.055 29.442C278.922 29.442 277.475 30.3503 276.713 32.1667V45.6667H273.461V26.6471H276.625L276.678 28.8444C277.744 27.1452 279.256 26.2956 281.213 26.2956C281.846 26.2956 282.326 26.3776 282.654 26.5417V29.5651Z" fill="white"/>
<path d="M138 23.9091C126.074 52.038 124 57 124 57C124 57 121.407 52.038 110 23.9091C110 17.8332 111.475 12.0062 114.101 7.70992C116.726 3.41363 120.287 1 124 1C127.713 1 131.274 3.41363 133.899 7.70992C136.525 12.0062 138 17.8332 138 23.9091Z" stroke="white" stroke-width="2" stroke-linecap="round"/>
<path d="M124 23.3002C127.866 23.3002 131 20.5716 131 17.2056C131 13.8397 127.866 11.1111 124 11.1111C120.134 11.1111 117 13.8397 117 17.2056C117 20.5716 120.134 23.3002 124 23.3002Z" stroke="white" stroke-width="2" stroke-linecap="round" stroke-linejoin="round"/>
</svg>
